<svg xmlns="http://www.w3.org/2000/svg" version="1.1" xmlns:xlink="http://www.w3.org/1999/xlink" xmlns:svgjs="http://svgjs.dev/svgjs" width="1000" height="851" viewBox="0 0 1000 851"><g transform="matrix(1,0,0,1,0.2059739910572489,0.3445344129554542)"><svg viewBox="0 0 290 247" data-background-color="#fbeaab" preserveAspectRatio="xMidYMid meet" height="851" width="1000" xmlns="http://www.w3.org/2000/svg" xmlns:xlink="http://www.w3.org/1999/xlink"><g id="tight-bounds" transform="matrix(1,0,0,1,-0.05973235477307526,-0.09999999999999432)"><svg viewBox="0 0 290.1194648121797 247.2" height="247.2" width="290.1194648121797"><g><svg viewBox="0 0 395.52 337.00787385395506" height="247.2" width="290.1194648121797"><g transform="matrix(1,0,0,1,0,246.96978952215235)"><svg viewBox="0 0 395.52 90.03808433180271" height="90.03808433180271" width="395.52"><g><svg viewBox="0 0 395.52 90.03808433180271" height="90.03808433180271" width="395.52"><g><rect width="75.54432" height="4.768114438573242" y="75.31232125595004" fill="#ffffff" data-fill-palette-color="tertiary"></rect><rect width="75.54432" height="4.768114438573242" y="75.31232125595004" x="319.97568" fill="#ffffff" data-fill-palette-color="tertiary"></rect></g><g><svg viewBox="0 0 395.52 52.872697648583596" height="52.872697648583596" width="395.52"><g transform="matrix(1,0,0,1,0,0)"><svg width="395.52" viewBox="3.4000000953674316 -35.5 269.58001708984375 36.099998474121094" height="52.872697648583596" data-palette-color="#565757"><g class="undefined-text-0" data-fill-palette-color="primary" id="text-0"><path d="M26.75 0L26.75-18.2 27.15-24.05 26.35-24.05 24.2-18.5 18.4-5.85 12.65-18.5 10.5-24.05 9.7-24.05 10.1-18.2 10.1 0 3.4 0 3.4-34.9 10.9-34.9 15.65-24.5 18.25-17.05 18.75-17.05 21.35-24.5 26-34.9 33.45-34.9 33.45 0 26.75 0ZM54.5 0L39.15 0 39.15-5.65 43.25-5.65 43.25-29.25 39.15-29.25 39.15-34.9 54.5-34.9 54.5-29.25 50.4-29.25 50.4-5.65 54.5-5.65 54.5 0ZM79.15 0L60.15 0 60.15-34.9 67.3-34.9 67.3-6.25 79.15-6.25 79.15 0ZM104.04 0L104.04-5.5 103.24-5.5Q102.89-2.8 100.87-1.1 98.84 0.6 95.39 0.6L95.39 0.6Q92.89 0.6 90.64-0.35 88.39-1.3 86.69-3.4 84.99-5.5 83.97-8.93 82.94-12.35 82.94-17.3L82.94-17.3Q82.94-22.25 83.94-25.7 84.94-29.15 86.74-31.33 88.54-33.5 91.09-34.5 93.64-35.5 96.79-35.5L96.79-35.5Q101.49-35.5 104.59-33.48 107.69-31.45 109.44-27.45L109.44-27.45 103.59-24.1Q102.89-26.45 101.24-27.83 99.59-29.2 96.74-29.2L96.74-29.2Q93.89-29.2 92.22-27.4 90.54-25.6 90.54-22L90.54-22 90.54-12.9Q90.54-9.3 92.24-7.53 93.94-5.75 96.94-5.75L96.94-5.75Q99.64-5.75 101.42-7.13 103.19-8.5 103.19-11.2L103.19-11.2 103.19-13.25 97.44-13.25 97.44-19.25 110.04-19.25 110.04 0 104.04 0ZM123.59-13.2L123.59 0 116.44 0 116.44-34.9 131.54-34.9Q136.24-34.9 138.69-31.95 141.14-29 141.14-24.05L141.14-24.05Q141.14-20.2 139.69-17.55 138.24-14.9 135.39-13.85L135.39-13.85 141.49 0 133.74 0 128.34-13.2 123.59-13.2ZM123.59-19.15L130.64-19.15Q132.09-19.15 132.92-19.88 133.74-20.6 133.74-22.4L133.74-22.4 133.74-25.4Q133.74-27.2 132.92-27.93 132.09-28.65 130.64-28.65L130.64-28.65 123.59-28.65 123.59-19.15ZM168.54 0L146.94 0 146.94-34.9 168.54-34.9 168.54-28.65 154.09-28.65 154.09-20.75 166.34-20.75 166.34-14.55 154.09-14.55 154.09-6.25 168.54-6.25 168.54 0Z" fill="#565757" data-fill-palette-color="primary"></path><path d="M198.44 0L191.39 0 189.24-8.55 178.54-8.55 176.39 0 169.54 0 179.44-34.9 188.54-34.9 198.44 0ZM187.49-14.3L185.34-22.35 184.24-28.4 183.44-28.4 182.34-22.35 180.29-14.3 187.49-14.3ZM213.04 0.6L213.04 0.6Q205.19 0.6 200.74-4.9L200.74-4.9 205.34-9.5Q208.34-5.65 213.19-5.65L213.19-5.65Q218.19-5.65 218.19-10.05L218.19-10.05Q218.19-11.85 217.29-12.85 216.39-13.85 214.49-14.25L214.49-14.25 211.29-14.85Q206.44-15.75 204.16-18.23 201.89-20.7 201.89-25.1L201.89-25.1Q201.89-30.2 204.89-32.85 207.89-35.5 213.69-35.5L213.69-35.5Q221.09-35.5 224.94-30.7L224.94-30.7 220.34-26.1Q219.04-27.7 217.41-28.48 215.79-29.25 213.59-29.25L213.59-29.25Q211.19-29.25 210.11-28.35 209.04-27.45 209.04-25.45L209.04-25.45Q209.04-23.7 209.86-22.8 210.69-21.9 212.54-21.5L212.54-21.5 215.74-20.85Q218.29-20.3 220.11-19.53 221.94-18.75 223.11-17.55 224.29-16.35 224.81-14.7 225.34-13.05 225.34-10.85L225.34-10.85Q225.34-5.25 222.19-2.33 219.04 0.6 213.04 0.6ZM244.84 0L229.49 0 229.49-5.65 233.59-5.65 233.59-29.25 229.49-29.25 229.49-34.9 244.84-34.9 244.84-29.25 240.74-29.25 240.74-5.65 244.84-5.65 244.84 0ZM260.68 0.6L260.68 0.6Q252.83 0.6 248.38-4.9L248.38-4.9 252.98-9.5Q255.98-5.65 260.83-5.65L260.83-5.65Q265.83-5.65 265.83-10.05L265.83-10.05Q265.83-11.85 264.93-12.85 264.03-13.85 262.13-14.25L262.13-14.25 258.93-14.85Q254.08-15.75 251.81-18.23 249.53-20.7 249.53-25.1L249.53-25.1Q249.53-30.2 252.53-32.85 255.53-35.5 261.33-35.5L261.33-35.5Q268.73-35.5 272.58-30.7L272.58-30.7 267.98-26.1Q266.68-27.7 265.06-28.48 263.43-29.25 261.23-29.25L261.23-29.25Q258.83-29.25 257.76-28.35 256.68-27.45 256.68-25.45L256.68-25.45Q256.68-23.7 257.51-22.8 258.33-21.9 260.18-21.5L260.18-21.5 263.38-20.85Q265.93-20.3 267.76-19.53 269.58-18.75 270.76-17.55 271.93-16.35 272.46-14.7 272.98-13.05 272.98-10.85L272.98-10.85Q272.98-5.25 269.83-2.33 266.68 0.6 260.68 0.6Z" fill="#bbcfd3" data-fill-palette-color="secondary"></path></g></svg></g></svg></g><g transform="matrix(1,0,0,1,75.54432,65.35467261867062)"><svg viewBox="0 0 244.43135999999998 24.683411713132088" height="24.683411713132088" width="244.43135999999998"><g transform="matrix(1,0,0,1,8,0)"><svg width="228.43135999999998" viewBox="2.640000104904175 -40.599998474121094 380.8899841308594 41.15999984741211" height="24.683411713132088" data-palette-color="#bbcfd3"><path d="M3.22-36.82L34.33-36.82 34.91-28.98 32.71-28.98 31.47-33.86 21.04-33.86 21.04-2.64 26.42-2.08 26.42 0 11.16 0 11.16-2.08 16.48-2.64 16.48-33.86 6.1-33.86 4.79-28.98 2.64-28.98 3.22-36.82ZM59.06-5.59L59.06-5.59 60.45-4Q56.56-0.51 52.93 0.37L52.93 0.37Q52.12 0.56 51.34 0.56L51.34 0.56Q45.97 0.56 42.6-2.83L42.6-2.83Q39.26-6.15 39.26-11.5L39.26-11.5Q39.26-16.82 42.4-20.61L42.4-20.61Q45.87-24.73 51.41-24.73L51.41-24.73Q55.25-24.73 57.88-21.97L57.88-21.97Q60.69-19.09 60.69-14.48L60.69-14.48 59.54-13.45 43.63-12.3Q43.67-7.86 46.51-5.2L46.51-5.2Q49.05-2.86 52.41-2.86 55.78-2.86 59.06-5.59ZM43.8-14.6L43.8-14.6 56.35-15.75Q56.17-19.8 53.22-21.31L53.22-21.31Q52.17-21.85 50.53-21.85 48.9-21.85 47.62-21.04 46.34-20.24 45.51-19.09L45.51-19.09Q43.92-16.92 43.8-14.6ZM84.32-5.59L84.32-5.59 85.71-4Q81.83-0.51 78.19 0.37L78.19 0.37Q77.39 0.56 76.61 0.56L76.61 0.56Q71.26 0.56 67.96-2.83L67.96-2.83Q64.77-6.13 64.77-11.5L64.77-11.5Q64.77-16.87 67.96-20.61L67.96-20.61Q71.53-24.73 77.53-24.73L77.53-24.73Q81.54-24.73 84.61-23.41L84.61-23.41 84.03-18.51 82.49-18.51Q82.49-20.97 79.54-21.63L79.54-21.63Q78.61-21.85 76.95-21.85 75.29-21.85 73.69-21.08 72.09-20.31 71.06-19.04L71.06-19.04Q69.04-16.53 69.04-12.89L69.04-12.89Q69.04-8.42 71.24-5.74L71.24-5.74Q73.6-2.86 77.33-2.86 81.05-2.86 84.32-5.59ZM103.92-21.56L103.92-21.56Q100.24-21.56 96.31-18.97L96.31-18.97 96.31-2.59 99.41-2.03 99.41 0 89.15 0 89.15-2.03 92.33-2.59 92.33-36.21 89.15-36.82 89.15-38.79 96.31-40.6 96.31-21.56Q98.75-23.24 101.1-23.99 103.46-24.73 105.12-24.73 106.78-24.73 108.1-24.27 109.42-23.8 110.34-22.85L110.34-22.85Q112.3-20.87 112.3-17.19L112.3-17.19 112.3-2.59 115.4-2.03 115.4 0 105.17 0 105.17-2.03 108.32-2.59 108.32-16.72Q108.32-21.56 103.92-21.56ZM133.1-21.56L133.1-21.56Q129.36-21.56 125.6-18.97L125.6-18.97 125.6-2.59 128.7-2.03 128.7 0 118.45 0 118.45-2.03 121.62-2.59 121.62-20.36 118.45-20.92 118.45-22.95 125.19-24.73 125.19-21.56Q130.12-24.73 134.34-24.73L134.34-24.73Q139.42-24.73 140.96-20.51L140.96-20.51Q141.47-19.09 141.47-17.19L141.47-17.19 141.47-2.59 144.57-2.03 144.57 0 134.34 0 134.34-2.03 137.49-2.59 137.49-16.72Q137.49-21.56 133.1-21.56ZM154.24-24.73L154.24-2.59 157.36-2.03 157.36 0 147.11 0 147.11-2.03 150.28-2.59 150.28-20.36 147.11-20.92 147.11-22.95 154.24-24.73ZM150.15-32.19Q149.74-32.62 149.5-33.15 149.26-33.69 149.26-34.22 149.26-34.74 149.5-35.27 149.74-35.79 150.13-36.23L150.13-36.23Q151.04-37.21 151.78-37.21 152.53-37.21 153.05-36.94 153.58-36.67 153.99-36.23L153.99-36.23Q154.89-35.23 154.89-34.46 154.89-33.69 154.64-33.15 154.38-32.62 153.99-32.18L153.99-32.18Q153.06-31.23 152.29-31.23 151.53-31.23 151.04-31.49 150.55-31.76 150.15-32.19ZM180.19-5.59L180.19-5.59 181.58-4Q177.69-0.51 174.06 0.37L174.06 0.37Q173.25 0.56 172.47 0.56L172.47 0.56Q167.12 0.56 163.83-2.83L163.83-2.83Q160.63-6.13 160.63-11.5L160.63-11.5Q160.63-16.87 163.83-20.61L163.83-20.61Q167.39-24.73 173.4-24.73L173.4-24.73Q177.4-24.73 180.48-23.41L180.48-23.41 179.89-18.51 178.35-18.51Q178.35-20.97 175.4-21.63L175.4-21.63Q174.47-21.85 172.81-21.85 171.15-21.85 169.55-21.08 167.95-20.31 166.93-19.04L166.93-19.04Q164.9-16.53 164.9-12.89L164.9-12.89Q164.9-8.42 167.1-5.74L167.1-5.74Q169.47-2.86 173.19-2.86 176.91-2.86 180.19-5.59ZM207.8-3.56L208.23-1.27Q204.67 0.56 203.08 0.56L203.08 0.56Q199.52 0.56 199.52-2.47L199.52-2.47 199.52-3.22Q199.18-2.71 197.65-1.73 196.13-0.76 195.27-0.37L195.27-0.37Q193.24 0.56 192.19 0.56 191.14 0.56 190.46 0.48 189.78 0.39 189.05 0.15 188.31-0.1 187.6-0.54 186.9-0.98 186.34-1.68L186.34-1.68Q185.09-3.25 185.09-5.76L185.09-5.76Q185.09-9.23 187.56-10.6L187.56-10.6Q189.12-11.5 190.86-11.72 192.61-11.94 194.05-12.06L194.05-12.06Q196.78-12.3 199.52-12.35L199.52-12.35 199.52-17.48Q199.52-19.6 198.98-20.31L198.98-20.31Q198.08-21.56 196.17-21.56L196.17-21.56Q191.93-21.56 187.82-18.8L187.82-18.8 186.41-20.92Q192.12-24.73 196.64-24.73L196.64-24.73Q200.57-24.73 202.2-22.56L202.2-22.56Q203.47-20.87 203.47-17.77L203.47-17.77 203.47-4.93Q203.47-3.13 204.16-2.88L204.16-2.88Q204.4-2.81 204.79-2.81L204.79-2.81Q205.77-2.81 207.8-3.56L207.8-3.56ZM199.52-5.47L199.52-10.3Q192.59-10.03 190.63-8.91L190.63-8.91Q189.14-8.06 189.14-6.15L189.14-6.15Q189.14-3.39 191.27-2.76L191.27-2.76Q191.85-2.59 192.69-2.59 193.54-2.59 194.66-2.93 195.78-3.27 196.74-3.76L196.74-3.76Q198.54-4.64 199.52-5.47L199.52-5.47ZM216.56-40.6L216.56-2.59 219.68-2.03 219.68 0 209.43 0 209.43-2.03 212.6-2.59 212.6-36.21 209.43-36.82 209.43-38.79 216.56-40.6ZM245.43-34.18L256.13-5.86 262.4-26.27 262.16-23.02 257.91-34.18 254.86-34.74 254.86-36.82 266.28-36.82 266.31-34.74 262.74-34.18 272.24-6.03Q273.53-9.5 274.66-13.04L274.66-13.04 279.05-27.2Q280.18-30.71 281.47-34.18L281.47-34.18 277.95-34.74 277.95-36.82 287.33-36.82 287.33-34.74 284.62-34.28 272.8 0 270.17 0 262.45-22.17 263.65-21.9 256.69 0 254.05 0 240.6-34.18 237.82-34.74 237.82-36.82 248.51-36.82 248.68-34.74 245.43-34.18ZM291.79-2.59L291.79-20.36 288.67-20.92 288.67-22.95 295.75-24.73 295.75-18.51Q301.36-24.73 304.2-24.73L304.2-24.73Q306.52-24.73 308.47-22.88L308.47-22.88 307.2-18.92 306.05-18.92Q306.05-20.12 304.22-20.7L304.22-20.7Q303.71-20.85 303.2-20.85L303.2-20.85Q300.61-20.85 295.75-15.65L295.75-15.65 295.75-2.59 300.58-2.03 300.58 0 288.67 0 288.67-2.03 291.79-2.59ZM316.82-24.73L316.82-2.59 319.94-2.03 319.94 0 309.69 0 309.69-2.03 312.86-2.59 312.86-20.36 309.69-20.92 309.69-22.95 316.82-24.73ZM312.73-32.19Q312.32-32.62 312.08-33.15 311.84-33.69 311.84-34.22 311.84-34.74 312.08-35.27 312.32-35.79 312.71-36.23L312.71-36.23Q313.62-37.21 314.36-37.21 315.11-37.21 315.63-36.94 316.16-36.67 316.57-36.23L316.57-36.23Q317.47-35.23 317.47-34.46 317.47-33.69 317.22-33.15 316.96-32.62 316.57-32.18L316.57-32.18Q315.64-31.23 314.87-31.23 314.11-31.23 313.62-31.49 313.13-31.76 312.73-32.19ZM329.17-21.29L329.17-7.47Q329.17-2.59 333.12-2.59L333.12-2.59Q335.2-2.59 337.15-4.3L337.15-4.3 338.47-2.69Q336.39-0.98 334.64-0.21 332.88 0.56 331.53 0.56 330.19 0.56 328.93-0.02 327.68-0.61 326.85-1.71L326.85-1.71Q325.21-3.83 325.21-7.74L325.21-7.74 325.21-21.29 322.11-21.29 322.11-23.41 325.21-24.15 325.21-27.42 328.09-30.3 329.17-30.3 329.17-24.15 337.22-24.15 337.22-21.29 329.17-21.29ZM359.22-5.59L359.22-5.59 360.61-4Q356.73-0.51 353.09 0.37L353.09 0.37Q352.28 0.56 351.5 0.56L351.5 0.56Q346.13 0.56 342.76-2.83L342.76-2.83Q339.42-6.15 339.42-11.5L339.42-11.5Q339.42-16.82 342.57-20.61L342.57-20.61Q346.03-24.73 351.58-24.73L351.58-24.73Q355.41-24.73 358.05-21.97L358.05-21.97Q360.85-19.09 360.85-14.48L360.85-14.48 359.71-13.45 343.79-12.3Q343.84-7.86 346.67-5.2L346.67-5.2Q349.21-2.86 352.58-2.86 355.95-2.86 359.22-5.59ZM343.96-14.6L343.96-14.6 356.51-15.75Q356.34-19.8 353.38-21.31L353.38-21.31Q352.33-21.85 350.7-21.85 349.06-21.85 347.78-21.04 346.5-20.24 345.67-19.09L345.67-19.09Q344.08-16.92 343.96-14.6ZM366.86-2.59L366.86-20.36 363.73-20.92 363.73-22.95 370.81-24.73 370.81-18.51Q376.43-24.73 379.26-24.73L379.26-24.73Q381.58-24.73 383.53-22.88L383.53-22.88 382.26-18.92 381.11-18.92Q381.11-20.12 379.28-20.7L379.28-20.7Q378.77-20.85 378.26-20.85L378.26-20.85Q375.67-20.85 370.81-15.65L370.81-15.65 370.81-2.59 375.65-2.03 375.65 0 363.73 0 363.73-2.03 366.86-2.59Z" opacity="1" transform="matrix(1,0,0,1,0,0)" fill="#bbcfd3" class="undefined-text-1" data-fill-palette-color="secondary" id="text-1"></path></svg></g></svg></g></svg></g></svg></g><g transform="matrix(1,0,0,1,86.75708020901084,0)"><svg viewBox="0 0 222.0058395819783 222.0058395819783" height="222.0058395819783" width="222.0058395819783"><g><svg></svg></g><g id="icon-0"><svg viewBox="0 0 222.0058395819783 222.0058395819783" height="222.0058395819783" width="222.0058395819783"><g><path d="M0 111.003c0-61.305 49.698-111.003 111.003-111.003 61.305 0 111.003 49.698 111.003 111.003 0 61.305-49.698 111.003-111.003 111.003-61.305 0-111.003-49.698-111.003-111.003zM111.003 217.238c58.672 0 106.235-47.563 106.235-106.235 0-58.672-47.563-106.235-106.235-106.235-58.672 0-106.235 47.563-106.235 106.235 0 58.672 47.563 106.235 106.235 106.235z" data-fill-palette-color="tertiary" fill="#ffffff" stroke="transparent"></path></g><g transform="matrix(1,0,0,1,44.2175186137477,45.958230568069524)"><svg viewBox="0 0 133.5708023544829 130.08937844583926" height="130.08937844583926" width="133.5708023544829"><g><svg xmlns="http://www.w3.org/2000/svg" xmlns:xlink="http://www.w3.org/1999/xlink" version="1.1" x="0" y="0" viewBox="8.657997131347656 9.735349655151367 82.6837387084961 80.52864837646484" enable-background="new 0 0 100 100" xml:space="preserve" height="130.08937844583926" width="133.5708023544829" class="icon-s-0" data-fill-palette-color="accent" id="s-0"><g fill="#565757" data-fill-palette-color="accent"><path d="M91.204 19.352c-0.194-0.494-0.576-0.891-1.062-1.103l-19.11-8.346c-1.012-0.442-2.192 0.02-2.634 1.033L48.012 57.615c-0.031 0.071-0.049 0.146-0.071 0.22-0.016 0.052-0.038 0.102-0.049 0.153-0.007 0.033-0.006 0.067-0.012 0.102-0.016 0.096-0.032 0.191-0.034 0.288 0 0.007 0.001 0.014 0.001 0.021-0.001 0.122 0.008 0.244 0.029 0.363 0.007 0.039 0.022 0.076 0.031 0.114 0.021 0.088 0.041 0.175 0.073 0.259 0.001 0.004 0.001 0.007 0.003 0.011l4.788 12.212c0.306 0.778 1.054 1.27 1.861 1.27 0.142 0 0.286-0.015 0.43-0.047l13.972-3.064c0.626-0.137 1.147-0.565 1.404-1.152l20.737-47.482C91.387 20.396 91.397 19.846 91.204 19.352zM71.264 14.37l15.444 6.745-2.087 4.777-15.443-6.745L71.264 14.37zM60.571 67.277c-0.117-0.086-0.243-0.163-0.382-0.224l-5.498-2.401c-0.095-0.041-0.192-0.067-0.289-0.093l-0.907-2.313 9.853 4.423L60.571 67.277zM67.846 64.304L52.47 57.402l15.106-34.589 15.444 6.745L67.846 64.304z" fill="#565757" data-fill-palette-color="accent"></path><path d="M51.658 73.921c-2.625 0-4.582 1.414-6.307 2.661-1.457 1.053-2.714 1.962-4.149 1.962-1.182 0-1.961-0.608-3.236-1.683-1.554-1.311-3.488-2.94-6.809-2.94-2.625 0-4.581 1.414-6.307 2.661-1.457 1.053-2.715 1.962-4.149 1.962-1.181 0-1.96-0.608-3.235-1.683-1.554-1.311-3.488-2.94-6.808-2.94-1.104 0-2 0.896-2 2s0.896 2 2 2c1.859 0 2.905 0.882 4.23 1.999 1.387 1.169 3.113 2.624 5.813 2.624 2.729 0 4.729-1.445 6.493-2.72 1.413-1.021 2.633-1.903 3.963-1.903 1.859 0 2.906 0.882 4.231 1.999 1.387 1.169 3.114 2.624 5.814 2.624 2.729 0 4.728-1.445 6.492-2.72 1.413-1.021 2.633-1.903 3.964-1.903 1.104 0 2-0.896 2-2S52.763 73.921 51.658 73.921z" fill="#565757" data-fill-palette-color="accent"></path><path d="M51.658 81.641c-2.625 0-4.581 1.414-6.307 2.661-1.457 1.053-2.715 1.962-4.15 1.962-1.181 0-1.96-0.608-3.235-1.683-1.554-1.31-3.488-2.94-6.809-2.94-2.625 0-4.581 1.414-6.307 2.661-1.457 1.053-2.715 1.962-4.149 1.962-1.181 0-1.96-0.608-3.235-1.683-1.554-1.311-3.488-2.94-6.808-2.94-1.104 0-2 0.896-2 2s0.896 2 2 2c1.859 0 2.905 0.882 4.23 1.999 1.387 1.169 3.113 2.624 5.813 2.624 2.729 0 4.729-1.445 6.493-2.72 1.413-1.021 2.633-1.903 3.963-1.903 1.859 0 2.906 0.882 4.231 1.999 1.387 1.169 3.113 2.624 5.813 2.624 2.729 0 4.729-1.445 6.493-2.72 1.413-1.021 2.633-1.903 3.964-1.903 1.104 0 2-0.896 2-2S52.763 81.641 51.658 81.641z" fill="#565757" data-fill-palette-color="accent"></path></g></svg></g></svg></g></svg></g></svg></g><g></g></svg></g><defs></defs></svg><rect width="290.1194648121797" height="247.2" fill="none" stroke="none" visibility="hidden"></rect></g></svg></g></svg>